<svg width="71" height="71" viewBox="0 0 71 71" fill="none" xmlns="http://www.w3.org/2000/svg">
<g clip-path="url(#clip0_25_76)">
<path d="M62.125 68.0417C58.8119 68.0142 55.6355 66.7172 53.25 64.4177C50.8621 66.7061 47.6825 67.9836 44.375 67.9836C41.0676 67.9836 37.888 66.7061 35.5 64.4177C33.1121 66.7061 29.9325 67.9836 26.625 67.9836C23.3176 67.9836 20.138 66.7061 17.75 64.4177C15.5394 66.6027 12.5879 67.8764 9.4816 67.986C6.37531 68.0956 3.34138 67.0331 0.982208 65.0094C0.687261 64.7517 0.446427 64.438 0.273678 64.0865C0.100929 63.7349 -0.000295848 63.3526 -0.0241234 62.9617C-0.0479509 62.5707 0.00609319 62.1789 0.134873 61.809C0.263653 61.4391 0.464606 61.0985 0.726072 60.8068C0.987537 60.5152 1.30431 60.2784 1.65801 60.1102C2.01172 59.9419 2.39531 59.8456 2.78653 59.8268C3.17776 59.8079 3.56883 59.867 3.93705 60.0005C4.30527 60.134 4.64332 60.3393 4.93158 60.6045C5.70756 61.2288 6.61648 61.6668 7.58836 61.8846C8.56024 62.1024 9.56915 62.0943 10.5374 61.8608C11.5056 61.6273 12.4073 61.1747 13.1731 60.5379C13.9389 59.901 14.5483 59.0969 14.9544 58.1875C15.1637 57.6142 15.5441 57.1192 16.0442 56.7694C16.5443 56.4196 17.1398 56.232 17.75 56.232C18.3603 56.232 18.9558 56.4196 19.4559 56.7694C19.956 57.1192 20.3364 57.6142 20.5457 58.1875C21.0944 59.3346 21.9564 60.303 23.0321 60.9809C24.1079 61.6588 25.3535 62.0186 26.625 62.0186C27.8966 62.0186 29.1422 61.6588 30.218 60.9809C31.2937 60.303 32.1557 59.3346 32.7044 58.1875C32.9163 57.6168 33.2977 57.1246 33.7974 56.7771C34.2972 56.4295 34.8913 56.2432 35.5 56.2432C36.1088 56.2432 36.7029 56.4295 37.2027 56.7771C37.7024 57.1246 38.0838 57.6168 38.2957 58.1875C38.8444 59.3346 39.7064 60.303 40.7821 60.9809C41.8579 61.6588 43.1035 62.0186 44.375 62.0186C45.6466 62.0186 46.8922 61.6588 47.968 60.9809C49.0437 60.303 49.9057 59.3346 50.4544 58.1875C50.6637 57.6142 51.0441 57.1192 51.5442 56.7694C52.0443 56.4196 52.6398 56.232 53.25 56.232C53.8603 56.232 54.4558 56.4196 54.9559 56.7694C55.456 57.1192 55.8364 57.6142 56.0457 58.1875C56.4519 59.0964 57.0612 59.9001 57.8268 60.5366C58.5923 61.1731 59.4937 61.6255 60.4615 61.8589C61.4293 62.0924 62.4378 62.1007 63.4094 61.8832C64.3809 61.6657 65.2896 61.2283 66.0656 60.6045C66.6531 60.109 67.4103 59.8616 68.177 59.9147C68.9437 59.9678 69.6597 60.3172 70.1733 60.8888C70.6869 61.4605 70.9579 62.2097 70.9289 62.9776C70.8999 63.7456 70.5732 64.4722 70.0179 65.0035C67.8539 66.9585 65.0414 68.0412 62.125 68.0417ZM62.125 50.2917C58.8119 50.2642 55.6355 48.9672 53.25 46.6677C50.8621 48.9561 47.6825 50.2336 44.375 50.2336C41.0676 50.2336 37.888 48.9561 35.5 46.6677C33.1121 48.9561 29.9325 50.2336 26.625 50.2336C23.3176 50.2336 20.138 48.9561 17.75 46.6677C15.5394 48.8527 12.5879 50.1264 9.4816 50.236C6.37531 50.3456 3.34138 49.2831 0.982208 47.2594C0.687261 47.0017 0.446427 46.688 0.273678 46.3364C0.100929 45.9849 -0.000295848 45.6026 -0.0241234 45.2116C-0.0479509 44.8207 0.00609319 44.4289 0.134873 44.059C0.263653 43.6891 0.464606 43.3485 0.726072 43.0568C0.987537 42.7652 1.30431 42.5284 1.65801 42.3602C2.01172 42.1919 2.39531 42.0956 2.78653 42.0768C3.17776 42.0579 3.56883 42.117 3.93705 42.2505C4.30527 42.384 4.64332 42.5893 4.93158 42.8545C5.70756 43.4788 6.61648 43.9168 7.58836 44.1346C8.56024 44.3524 9.56915 44.3443 10.5374 44.1108C11.5056 43.8773 12.4073 43.4247 13.1731 42.7879C13.9389 42.151 14.5483 41.3469 14.9544 40.4375C15.1637 39.8642 15.5441 39.3692 16.0442 39.0194C16.5443 38.6696 17.1398 38.482 17.75 38.482C18.3603 38.482 18.9558 38.6696 19.4559 39.0194C19.956 39.3692 20.3364 39.8642 20.5457 40.4375C21.0944 41.5846 21.9564 42.553 23.0321 43.2309C24.1079 43.9088 25.3535 44.2686 26.625 44.2686C27.8966 44.2686 29.1422 43.9088 30.218 43.2309C31.2937 42.553 32.1557 41.5846 32.7044 40.4375C32.915 39.8655 33.2959 39.3719 33.7958 39.0232C34.2957 38.6746 34.8906 38.4876 35.5 38.4876C36.1095 38.4876 36.7044 38.6746 37.2043 39.0232C37.7042 39.3719 38.0851 39.8655 38.2957 40.4375C38.8444 41.5846 39.7064 42.553 40.7821 43.2309C41.8579 43.9088 43.1035 44.2686 44.375 44.2686C45.6466 44.2686 46.8922 43.9088 47.968 43.2309C49.0437 42.553 49.9057 41.5846 50.4544 40.4375C50.665 39.8655 51.0459 39.3719 51.5458 39.0232C52.0457 38.6746 52.6406 38.4876 53.25 38.4876C53.8595 38.4876 54.4544 38.6746 54.9543 39.0232C55.4542 39.3719 55.8351 39.8655 56.0457 40.4375C56.4519 41.3464 57.0612 42.1501 57.8268 42.7866C58.5923 43.4231 59.4937 43.8755 60.4615 44.1089C61.4293 44.3424 62.4378 44.3507 63.4094 44.1332C64.3809 43.9157 65.2896 43.4783 66.0656 42.8545C66.6531 42.359 67.4103 42.1116 68.177 42.1647C68.9437 42.2178 69.6597 42.5672 70.1733 43.1388C70.6869 43.7105 70.9579 44.4597 70.9289 45.2276C70.8999 45.9956 70.5732 46.7222 70.0179 47.2535C67.8539 49.2085 65.0414 50.2911 62.125 50.2917ZM62.125 32.5417C58.8119 32.5142 55.6355 31.2172 53.25 28.9177C50.8621 31.2061 47.6825 32.4836 44.375 32.4836C41.0676 32.4836 37.888 31.2061 35.5 28.9177C33.1121 31.2061 29.9325 32.4836 26.625 32.4836C23.3176 32.4836 20.138 31.2061 17.75 28.9177C15.5394 31.1027 12.5879 32.3764 9.4816 32.486C6.37531 32.5956 3.34138 31.5331 0.982208 29.5094C0.671396 29.2565 0.415192 28.9432 0.229138 28.5883C0.0430834 28.2334 -0.0689433 27.8445 -0.100147 27.445C-0.13135 27.0455 -0.0810792 26.6439 0.0476157 26.2644C0.176311 25.885 0.380747 25.5356 0.648525 25.2376C0.916302 24.9395 1.24184 24.6989 1.60539 24.5305C1.96893 24.362 2.36291 24.2691 2.76343 24.2575C3.16394 24.2459 3.56264 24.3158 3.93535 24.4629C4.30805 24.61 4.64698 24.8313 4.93158 25.1133C5.70756 25.7377 6.61648 26.1757 7.58836 26.3935C8.56024 26.6113 9.56915 26.6031 10.5374 26.3697C11.5056 26.1362 12.4073 25.6836 13.1731 25.0467C13.9389 24.4099 14.5483 23.6058 14.9544 22.6964C15.1637 22.1231 15.5441 21.628 16.0442 21.2782C16.5443 20.9285 17.1398 20.7408 17.75 20.7408C18.3603 20.7408 18.9558 20.9285 19.4559 21.2782C19.956 21.628 20.3364 22.1231 20.5457 22.6964C21.0944 23.8434 21.9564 24.8119 23.0321 25.4898C24.1079 26.1677 25.3535 26.5275 26.625 26.5275C27.8966 26.5275 29.1422 26.1677 30.218 25.4898C31.2937 24.8119 32.1557 23.8434 32.7044 22.6964C32.9163 22.1257 33.2977 21.6335 33.7974 21.2859C34.2972 20.9384 34.8913 20.7521 35.5 20.7521C36.1088 20.7521 36.7029 20.9384 37.2027 21.2859C37.7024 21.6335 38.0838 22.1257 38.2957 22.6964C38.8444 23.8434 39.7064 24.8119 40.7821 25.4898C41.8579 26.1677 43.1035 26.5275 44.375 26.5275C45.6466 26.5275 46.8922 26.1677 47.968 25.4898C49.0437 24.8119 49.9057 23.8434 50.4544 22.6964C50.6637 22.1231 51.0441 21.628 51.5442 21.2782C52.0443 20.9285 52.6398 20.7408 53.25 20.7408C53.8603 20.7408 54.4558 20.9285 54.9559 21.2782C55.456 21.628 55.8364 22.1231 56.0457 22.6964C56.4519 23.6053 57.0612 24.409 57.8268 25.0455C58.5923 25.682 59.4937 26.1343 60.4615 26.3678C61.4293 26.6013 62.4378 26.6096 63.4094 26.3921C64.3809 26.1746 65.2896 25.7371 66.0656 25.1133C66.6531 24.6179 67.4103 24.3705 68.177 24.4236C68.9437 24.4767 69.6597 24.826 70.1733 25.3977C70.6869 25.9694 70.9579 26.7185 70.9289 27.4865C70.8999 28.2545 70.5732 28.9811 70.0179 29.5124C67.8525 31.4642 65.0402 32.5436 62.125 32.5417ZM62.125 14.7917C58.8119 14.7642 55.6355 13.4672 53.25 11.1677C50.8621 13.4561 47.6825 14.7336 44.375 14.7336C41.0676 14.7336 37.888 13.4561 35.5 11.1677C33.1121 13.4561 29.9325 14.7336 26.625 14.7336C23.3176 14.7336 20.138 13.4561 17.75 11.1677C15.5394 13.3527 12.5879 14.6264 9.4816 14.736C6.37531 14.8456 3.34138 13.7831 0.982208 11.7594C0.671396 11.5065 0.415192 11.1932 0.229138 10.8383C0.0430834 10.4834 -0.0689433 10.0945 -0.100147 9.69499C-0.13135 9.29553 -0.0810792 8.89389 0.0476157 8.51443C0.176311 8.13498 0.380747 7.78562 0.648525 7.48756C0.916302 7.18949 1.24184 6.94893 1.60539 6.78047C1.96893 6.612 2.36291 6.51914 2.76343 6.50752C3.16394 6.49591 3.56264 6.56577 3.93535 6.71288C4.30805 6.85999 4.64698 7.08128 4.93158 7.36332C5.70756 7.98771 6.61648 8.42567 7.58836 8.64348C8.56024 8.86129 9.56915 8.85314 10.5374 8.61965C11.5056 8.38617 12.4073 7.93358 13.1731 7.29674C13.9389 6.6599 14.5483 5.8558 14.9544 4.94636C15.1637 4.3731 15.5441 3.87804 16.0442 3.52824C16.5443 3.17845 17.1398 2.99084 17.75 2.99084C18.3603 2.99084 18.9558 3.17845 19.4559 3.52824C19.956 3.87804 20.3364 4.3731 20.5457 4.94636C21.0944 6.09344 21.9564 7.06187 23.0321 7.73979C24.1079 8.41771 25.3535 8.77745 26.625 8.77745C27.8966 8.77745 29.1422 8.41771 30.218 7.73979C31.2937 7.06187 32.1557 6.09344 32.7044 4.94636C32.9117 4.38496 33.2832 3.89892 33.7705 3.55146C34.2577 3.204 34.8383 3.01119 35.4366 2.9981C36.0349 2.98502 36.6233 3.15227 37.1253 3.4781C37.6273 3.80393 38.0196 4.27326 38.2513 4.82507L38.2957 4.94932C38.8444 6.09639 39.7064 7.06483 40.7821 7.74275C41.8579 8.42067 43.1035 8.78041 44.375 8.78041C45.6466 8.78041 46.8922 8.42067 47.968 7.74275C49.0437 7.06483 49.9057 6.09639 50.4544 4.94932C50.6663 4.37864 51.0477 3.88645 51.5474 3.53888C52.0472 3.19131 52.6413 3.00501 53.25 3.00501C53.8588 3.00501 54.4529 3.19131 54.9527 3.53888C55.4524 3.88645 55.8338 4.37864 56.0457 4.94932C56.4519 5.85827 57.0612 6.66192 57.8268 7.29842C58.5923 7.93492 59.4937 8.3873 60.4615 8.62076C61.4293 8.85422 62.4378 8.86252 63.4094 8.64504C64.3809 8.42756 65.2896 7.99008 66.0656 7.36628C66.3519 7.0923 66.6904 6.87865 67.0609 6.73801C67.4314 6.59737 67.8264 6.5326 68.2224 6.54756C68.6184 6.56252 69.0074 6.6569 69.3662 6.82509C69.7251 6.99328 70.0465 7.23185 70.3113 7.52665C70.5762 7.82145 70.7791 8.16646 70.9081 8.54119C71.037 8.91593 71.0894 9.31276 71.062 9.70812C71.0346 10.1035 70.9281 10.4893 70.7487 10.8427C70.5694 11.1961 70.3208 11.5098 70.0179 11.7653C67.8521 13.7161 65.0399 14.7944 62.125 14.7917Z" fill="#F5F5F5"/>
</g>
<defs>
<clipPath id="clip0_25_76">
<rect width="71" height="71" fill="white"/>
</clipPath>
</defs>
</svg>
