<svg width="71" height="71" viewBox="0 0 71 71" fill="none" xmlns="http://www.w3.org/2000/svg">
<g clip-path="url(#clip0_25_61)">
<path d="M20.7083 71C2.7246 71.3461 -6.90478 48.4042 5.91664 35.8254V14.7916C6.54085 -4.75998 34.8817 -4.73336 35.5 14.7916V35.8254C48.3244 48.4072 38.6861 71.3461 20.7083 71ZM20.7083 5.91665C18.3545 5.91665 16.0971 6.85169 14.4327 8.51607C12.7684 10.1805 11.8333 12.4378 11.8333 14.7916V37.0886C11.8332 37.5039 11.7458 37.9145 11.5765 38.2937C11.4073 38.6729 11.1602 39.0122 10.8511 39.2896C8.6548 41.3002 7.11386 43.9249 6.42851 46.8226C5.74316 49.7203 5.94507 52.7571 7.00802 55.5386C8.07097 58.3201 9.94583 60.7176 12.389 62.4197C14.8322 64.1219 17.7308 65.0499 20.7083 65.0833C23.6858 65.0499 26.5844 64.1219 29.0276 62.4197C31.4708 60.7176 33.3456 58.3201 34.4086 55.5386C35.4715 52.7571 35.6735 49.7203 34.9881 46.8226C34.3028 43.9249 32.7618 41.3002 30.5655 39.2896C30.2565 39.0122 30.0093 38.6729 29.8401 38.2937C29.6709 37.9145 29.5834 37.5039 29.5833 37.0886V14.7916C29.5833 12.4378 28.6483 10.1805 26.9839 8.51607C25.3195 6.85169 23.0621 5.91665 20.7083 5.91665ZM20.7083 59.1666C18.6292 59.1405 16.6249 58.3869 15.0437 57.0367C13.4624 55.6865 12.4041 53.8251 12.0525 51.7758C11.7009 49.7264 12.0783 47.6187 13.1192 45.8187C14.16 44.0187 15.7985 42.6401 17.75 41.9225V14.4662C17.75 13.6816 18.0617 12.9292 18.6165 12.3744C19.1712 11.8196 19.9237 11.5079 20.7083 11.5079C21.4929 11.5079 22.2454 11.8196 22.8002 12.3744C23.355 12.9292 23.6666 13.6816 23.6666 14.4662V41.9225C25.6182 42.6401 27.2566 44.0187 28.2975 45.8187C29.3383 47.6187 29.7157 49.7264 29.3641 51.7758C29.0125 53.8251 27.9542 55.6865 26.3729 57.0367C24.7917 58.3869 22.7874 59.1405 20.7083 59.1666ZM20.7083 47.3333C19.9237 47.3333 19.1712 47.645 18.6165 48.1998C18.0617 48.7546 17.75 49.507 17.75 50.2916C17.75 51.0762 18.0617 51.8287 18.6165 52.3835C19.1712 52.9383 19.9237 53.25 20.7083 53.25C21.4929 53.25 22.2454 52.9383 22.8002 52.3835C23.355 51.8287 23.6666 51.0762 23.6666 50.2916C23.6666 49.507 23.355 48.7546 22.8002 48.1998C22.2454 47.645 21.4929 47.3333 20.7083 47.3333ZM67.1541 9.74177L58.2791 0.86677C57.7244 0.312168 56.972 0.000610352 56.1876 0.000610352C55.4032 0.000610352 54.6508 0.312168 54.0961 0.86677L45.2211 9.74177C44.666 10.2965 44.3539 11.049 44.3537 11.8337C44.3534 12.6185 44.6649 13.3712 45.2196 13.9263C45.7743 14.4814 46.5268 14.7934 47.3116 14.7937C48.0963 14.794 48.849 14.4825 49.4041 13.9278L53.25 10.1027V32.5416C53.25 33.3262 53.5617 34.0787 54.1164 34.6335C54.6712 35.1883 55.4237 35.5 56.2083 35.5C56.9929 35.5 57.7454 35.1883 58.3002 34.6335C58.855 34.0787 59.1666 33.3262 59.1666 32.5416V10.1027L63.0125 13.9278C63.5761 14.4367 64.3139 14.7094 65.073 14.6894C65.8322 14.6694 66.5546 14.3582 67.0906 13.8202C67.6266 13.2823 67.9353 12.5588 67.9526 11.7996C67.9699 11.0404 67.6946 10.3036 67.1837 9.74177H67.1689H67.1541Z" fill="#F5F5F5"/>
</g>
<defs>
<clipPath id="clip0_25_61">
<rect width="71" height="71" fill="white"/>
</clipPath>
</defs>
</svg>
