<svg width="71" height="71" viewBox="0 0 71 71" fill="none" xmlns="http://www.w3.org/2000/svg">
<g clip-path="url(#clip0_25_70)">
<path d="M62.7374 40.7688L45.8542 23.8856L39.9375 29.8023L22.7792 12.6439L18.5813 16.8122L39.9375 38.1625L45.8542 32.2458L58.5543 44.9667L50.2917 53.2145H66.5625C67.7394 53.2145 68.8681 52.747 69.7003 51.9148C70.5325 51.0826 71 49.9539 71 48.777V32.5062L62.7374 40.7688Z" fill="#F5F5F5"/>
<path d="M5.91667 62.054V0H0V62.054C0 64.4078 0.935042 66.6652 2.59943 68.3296C4.26381 69.994 6.5212 70.929 8.875 70.929H71V65.0123H8.875C8.0904 65.0123 7.33794 64.7007 6.78314 64.1459C6.22835 63.5911 5.91667 62.8386 5.91667 62.054Z" fill="#F5F5F5"/>
</g>
<defs>
<clipPath id="clip0_25_70">
<rect width="71" height="71" fill="white"/>
</clipPath>
</defs>
</svg>
