<svg width="38" height="40" viewBox="0 0 38 40" fill="none" xmlns="http://www.w3.org/2000/svg">
<path d="M37.4312 23.859C36.9103 23.212 36.1344 22.8705 35.319 22.9477C26.4788 23.8031 21.9091 30.1198 19.7937 34.3905V22.905C24.7355 22.5126 28.5024 18.493 28.5024 13.421C28.5024 8.72991 25.2533 4.66113 22.0769 1.30167C20.4397 -0.432247 17.5674 -0.435531 15.9254 1.30167C12.7491 4.66277 9.49993 8.72991 9.49993 13.421C9.49993 18.493 13.2669 22.5126 18.2087 22.905V34.3905C16.0948 30.1198 11.5235 23.8015 2.68178 22.946C1.87741 22.8672 1.09204 23.2104 0.569513 23.8573C0.0580723 24.4911 -0.12402 25.3367 0.0849902 26.1183C3.51782 38.9897 17.4265 39.3608 19.0004 39.3608C20.5743 39.3608 34.4798 38.988 37.9158 26.1167C38.1232 25.3351 37.9427 24.4895 37.4281 23.8557L37.4312 23.859ZM11.0849 13.421C11.0849 9.32102 14.1045 5.57406 17.056 2.45104C17.5769 1.90263 18.2673 1.59886 19.002 1.59886C19.211 1.59886 19.4152 1.63006 19.6132 1.67768C16.9799 6.07814 15.8351 9.7742 15.8351 13.9136C15.8351 14.3668 16.1898 14.7346 16.6268 14.7346C17.0639 14.7346 17.4186 14.3668 17.4186 13.9136C17.4186 10.0862 18.5 6.63969 20.986 2.49538C23.9264 5.61018 26.919 9.33908 26.919 13.421C26.919 17.8395 23.4418 21.3024 19.002 21.3024C14.5621 21.3024 11.0849 17.8412 11.0849 13.421ZM1.61298 25.6832C1.54173 25.4172 1.60506 25.1364 1.78557 24.9131C1.95658 24.7013 2.20517 24.5798 2.4601 24.5798C2.48544 24.5798 2.51235 24.5798 2.53769 24.5831C12.89 25.583 16.8374 34.5383 17.911 37.681C14.3911 37.4429 4.33011 35.8683 1.61456 25.6832H1.61298ZM36.3909 25.6832C33.6754 35.8552 23.635 37.4397 20.104 37.681C21.2076 34.5531 25.2437 25.5715 35.4646 24.5831C35.4916 24.5798 35.5169 24.5798 35.5422 24.5798C35.7972 24.5798 36.0442 24.7013 36.2168 24.9131C36.3973 25.1364 36.4606 25.4188 36.3909 25.6832Z" fill="#E48F45"/>
</svg>
