<svg width="71" height="71" viewBox="0 0 71 71" fill="none" xmlns="http://www.w3.org/2000/svg">
<g clip-path="url(#clip0_25_67)">
<path d="M55.809 47.3422C56.6314 45.9281 56.1522 44.1176 54.741 43.2981L49.4693 40.2304C49.9722 38.7453 50.2444 37.1537 50.2444 35.5C50.2444 33.8463 49.9722 32.2547 49.4693 30.7696L57.1432 26.3055C57.9923 26.9741 58.9803 27.4711 60.0572 27.758L67.2873 29.6691C67.5418 29.7342 67.7962 29.7667 68.0447 29.7667C69.3552 29.7667 70.5533 28.8911 70.9024 27.5657C71.3195 25.986 70.3788 24.3678 68.799 23.9477L61.5689 22.0366C61.0216 21.8916 60.566 21.5455 60.282 21.0574C59.998 20.5693 59.9211 20.0013 60.066 19.454L61.9771 12.2238C62.3943 10.6441 61.4535 9.02585 59.8738 8.60577C58.2851 8.1916 56.6728 9.12939 56.2557 10.7091L54.3446 17.9393C54.0606 19.0191 54.0044 20.1196 54.1642 21.1905L46.4843 25.6576C44.3987 23.3235 41.5883 21.652 38.4081 21.0012V12.1203C39.3991 11.7298 40.328 11.1351 41.1268 10.3364L46.4163 5.04689C47.573 3.89018 47.573 2.02052 46.4163 0.863808C45.2596 -0.2929 43.3899 -0.2929 42.2332 0.863808L36.9437 6.15331C36.1213 6.97277 34.7782 6.97277 33.9558 6.15331L28.6663 0.863808C27.5096 -0.2929 25.6399 -0.2929 24.4832 0.863808C23.3265 2.02052 23.3265 3.89018 24.4832 5.04689L29.7727 10.3364C30.5744 11.1381 31.5004 11.7298 32.4914 12.1203V21.0012C29.3112 21.6491 26.5008 23.3205 24.4152 25.6576L16.7294 21.1876C16.8892 20.1344 16.8448 19.0309 16.5549 17.9363L14.6438 10.7062C14.2237 9.12643 12.6085 8.18568 11.0258 8.60281C9.446 9.02289 8.50525 10.6381 8.92238 12.2208L10.8335 19.451C11.1323 20.5781 10.4578 21.7348 9.33063 22.0336L2.10046 23.9447C0.523669 24.3678 -0.42004 25.986 4.36753e-05 27.5657C0.352085 28.8911 1.54725 29.7667 2.85779 29.7667C3.10629 29.7667 3.36071 29.7342 3.61513 29.6691L10.8453 27.758C11.9399 27.4681 12.9191 26.9652 13.7563 26.3055L21.4332 30.7726C20.9303 32.2576 20.6581 33.8492 20.6581 35.5029C20.6581 37.1566 20.9303 38.7453 21.4332 40.2333L16.1614 43.3011C14.7473 44.1206 14.271 45.934 15.0935 47.3451C15.6437 48.2888 16.6348 48.8154 17.6524 48.8154C18.1583 48.8154 18.6701 48.6853 19.1375 48.4131L24.4152 45.3424C26.5008 47.6765 29.3112 49.3479 32.4914 49.9988V58.8797C31.5004 59.2702 30.5715 59.8648 29.7727 60.6636L24.4832 65.9531C23.3265 67.1098 23.3265 68.9794 24.4832 70.1361C25.6399 71.2929 27.5096 71.2929 28.6663 70.1361L33.9558 64.8466C34.7753 64.0272 36.1183 64.0242 36.9437 64.8466L42.2332 70.1361C42.8101 70.713 43.5674 71.0029 44.3248 71.0029C45.0821 71.0029 45.8394 70.713 46.4163 70.1361C47.573 68.9794 47.573 67.1098 46.4163 65.9531L41.1268 60.6636C40.328 59.8648 39.3991 59.2702 38.4081 58.8797V49.9988C41.5883 49.3509 44.3987 47.6794 46.4843 45.3453L51.762 48.4161C52.2294 48.6882 52.7412 48.8184 53.2471 48.8184C54.2648 48.8184 55.2588 48.2918 55.806 47.3481L55.809 47.3422ZM35.4527 44.375C30.5596 44.375 26.5777 40.3931 26.5777 35.5C26.5777 30.6069 30.5596 26.625 35.4527 26.625C40.3458 26.625 44.3277 30.6069 44.3277 35.5C44.3277 40.3931 40.3458 44.375 35.4527 44.375ZM65.6336 51.8625C63.8498 49.8686 60.4003 49.8686 58.6194 51.8625C58.5425 51.9483 55.6552 56.0515 55.6552 56.0515C52.3921 59.5276 52.4572 65.0034 55.8504 68.3996C57.5248 70.074 59.7554 71 62.125 71C64.4947 71 66.7253 70.077 68.3997 68.3996C71.7899 65.0064 71.858 59.5246 68.5949 56.0515C68.5949 56.0515 65.7076 51.9483 65.6307 51.8625H65.6336ZM64.2166 64.2165C63.1013 65.3377 61.1518 65.3318 60.0335 64.2165C58.8798 63.0628 58.8798 61.1872 60.0335 60.0334C60.1548 59.9121 62.125 57.1313 62.125 57.1313C62.125 57.1313 64.0953 59.9121 64.2166 60.0334C65.3703 61.1872 65.3703 63.0628 64.2166 64.2165ZM12.3836 51.8625C10.5998 49.8686 7.15034 49.8686 5.36942 51.8625C5.2925 51.9483 2.40517 56.0515 2.40517 56.0515C-0.857873 59.5276 -0.79279 65.0034 2.60042 68.3996C4.27484 70.074 6.50542 71 8.87504 71C11.2447 71 13.4753 70.077 15.1497 68.3996C18.5399 65.0064 18.608 59.5246 15.3449 56.0515C15.3449 56.0515 12.4605 51.9483 12.3836 51.8625ZM10.9666 64.2165C9.85129 65.3377 7.90175 65.3318 6.7835 64.2165C5.62975 63.0628 5.62975 61.1872 6.7835 60.0334C6.90479 59.9121 8.87504 57.1313 8.87504 57.1313C8.87504 57.1313 10.8453 59.9121 10.9666 60.0334C12.1203 61.1872 12.1203 63.0628 10.9666 64.2165Z" fill="#F5F5F5"/>
</g>
<defs>
<clipPath id="clip0_25_67">
<rect width="71" height="71" fill="white"/>
</clipPath>
</defs>
</svg>
