<svg width="190" height="75" viewBox="0 0 190 75" fill="none" xmlns="http://www.w3.org/2000/svg">
<path d="M27.0996 49H21.0938V36.1094C21.0938 34.0749 20.5729 32.4717 19.5312 31.2998C18.4896 30.1117 17.0817 29.5176 15.3076 29.5176C13.4847 29.5176 12.0199 30.1442 10.9131 31.3975C9.80632 32.6344 9.25293 34.3027 9.25293 36.4023V49H3.24707V24.5859H8.20312L8.39844 28.5166C9.27734 27.0843 10.4329 25.9938 11.8652 25.2451C13.3138 24.4801 15.0065 24.0977 16.9434 24.0977C20.1009 24.0977 22.583 25.0579 24.3896 26.9785C26.1963 28.8991 27.0996 31.5521 27.0996 34.9375V49ZM54.2236 49H48.999L48.6572 45.9971C47.762 47.1038 46.6471 47.9665 45.3125 48.585C43.9779 49.1872 42.4967 49.4883 40.8691 49.4883C39.1439 49.4883 37.6058 49.1546 36.2549 48.4873C34.904 47.8037 33.8379 46.876 33.0566 45.7041C32.2917 44.5322 31.9092 43.1976 31.9092 41.7002C31.9092 40.1214 32.3242 38.738 33.1543 37.5498C34.0007 36.3454 35.1481 35.4014 36.5967 34.7178C38.0615 34.0342 39.7298 33.6924 41.6016 33.6924C42.7409 33.6924 43.8802 33.8226 45.0195 34.083C46.1751 34.3434 47.2412 34.7096 48.2178 35.1816V34.4004C48.2178 33.3262 47.9248 32.3984 47.3389 31.6172C46.7529 30.8359 45.9635 30.2337 44.9707 29.8105C43.9779 29.3711 42.863 29.1514 41.626 29.1514C40.5029 29.1514 39.3799 29.3467 38.2568 29.7373C37.1338 30.1117 36.084 30.6732 35.1074 31.4219L33.3984 26.71C34.9609 25.8473 36.556 25.1963 38.1836 24.7568C39.8275 24.3174 41.4307 24.0977 42.9932 24.0977C45.2881 24.0977 47.2738 24.5534 48.9502 25.4648C50.6266 26.36 51.9206 27.6458 52.832 29.3223C53.7598 30.9824 54.2236 32.9437 54.2236 35.2061V49ZM42.1143 44.6543C43.1722 44.6543 44.1488 44.4346 45.0439 43.9951C45.9554 43.5557 46.696 42.9453 47.2656 42.1641C47.8516 41.3665 48.1608 40.4551 48.1934 39.4297V39.1611C47.4284 38.6077 46.5658 38.1846 45.6055 37.8916C44.6452 37.5824 43.6768 37.4277 42.7002 37.4277C41.2028 37.4277 39.974 37.7695 39.0137 38.4531C38.0534 39.1204 37.5732 39.9993 37.5732 41.0898C37.5732 41.7572 37.7686 42.3675 38.1592 42.9209C38.5498 43.458 39.0869 43.8812 39.7705 44.1904C40.4704 44.4997 41.2516 44.6543 42.1143 44.6543ZM75.5859 48.3652C73.7956 49.1139 72.0622 49.4883 70.3857 49.4883C68.6768 49.4883 67.1712 49.1221 65.8691 48.3896C64.5833 47.6572 63.5742 46.64 62.8418 45.3379C62.1257 44.0195 61.7676 42.4896 61.7676 40.748V29.957H57.4951V24.5859H62.085V18.4824H67.7734V24.5859H74.7314V29.957H67.7734V39.6494C67.7734 41.0329 68.1478 42.1234 68.8965 42.9209C69.6615 43.7184 70.6136 44.1172 71.7529 44.1172C72.762 44.1172 73.763 43.8079 74.7559 43.1895L75.5859 48.3652ZM103.467 49H98.5107L98.3154 45.0693C97.4365 46.5016 96.2809 47.6003 94.8486 48.3652C93.4163 49.1139 91.7236 49.4883 89.7705 49.4883C86.6292 49.4883 84.1471 48.528 82.3242 46.6074C80.5176 44.6706 79.6143 42.0094 79.6143 38.624V24.5859H85.6201V37.4766C85.6201 39.5111 86.1328 41.1224 87.1582 42.3105C88.1999 43.4824 89.6077 44.0684 91.3818 44.0684C93.221 44.0684 94.694 43.4417 95.8008 42.1885C96.9076 40.9352 97.4609 39.2669 97.4609 37.1836V24.5859H103.467V49ZM115.991 49H109.985V24.5859H115.21L115.43 29.0293C116.276 27.4668 117.415 26.2542 118.848 25.3916C120.296 24.529 121.956 24.0977 123.828 24.0977C124.316 24.0977 124.813 24.1302 125.317 24.1953C125.838 24.2604 126.351 24.3581 126.855 24.4883L126.123 29.9082C125.114 29.6152 124.137 29.4688 123.193 29.4688C121.761 29.4688 120.5 29.8024 119.409 30.4697C118.335 31.137 117.497 32.0648 116.895 33.2529C116.292 34.4248 115.991 35.792 115.991 37.3545V49ZM152.539 46.168C149.495 48.3815 146.167 49.4883 142.554 49.4883C139.933 49.4883 137.581 48.9186 135.498 47.7793C133.415 46.64 131.763 45.0856 130.542 43.1162C129.338 41.1305 128.735 38.9007 128.735 36.4268C128.735 34.0667 129.281 31.959 130.371 30.1035C131.478 28.248 132.983 26.7832 134.888 25.709C136.808 24.6348 138.973 24.0977 141.382 24.0977C143.888 24.0977 146.086 24.6917 147.974 25.8799C149.878 27.0518 151.359 28.6875 152.417 30.7871C153.475 32.8704 154.004 35.2956 154.004 38.0625V38.8438H135.205C135.498 39.9505 136.011 40.9271 136.743 41.7734C137.492 42.6198 138.42 43.279 139.526 43.751C140.633 44.223 141.878 44.459 143.262 44.459C145.866 44.459 148.275 43.6126 150.488 41.9199L152.539 46.168ZM134.961 35.3281H148.438C148.307 34.1074 147.933 33.0413 147.314 32.1299C146.712 31.2184 145.923 30.5104 144.946 30.0059C143.986 29.485 142.904 29.2246 141.699 29.2246C140.479 29.2246 139.388 29.485 138.428 30.0059C137.467 30.5267 136.686 31.251 136.084 32.1787C135.482 33.0902 135.107 34.14 134.961 35.3281Z" fill="#739072"/>
<path d="M189.431 59.3325C188.91 58.6855 188.134 58.344 187.319 58.4212C178.479 59.2767 173.909 65.5933 171.794 69.864V58.3785C176.735 57.9861 180.502 53.9665 180.502 48.8945C180.502 44.2034 177.253 40.1346 174.077 36.7752C172.44 35.0413 169.567 35.038 167.925 36.7752C164.749 40.1363 161.5 44.2034 161.5 48.8945C161.5 53.9665 165.267 57.9861 170.209 58.3785V69.864C168.095 65.5933 163.524 59.275 154.682 58.4195C153.877 58.3407 153.092 58.6839 152.57 59.3308C152.058 59.9646 151.876 60.8102 152.085 61.5918C155.518 74.4632 169.426 74.8343 171 74.8343C172.574 74.8343 186.48 74.4615 189.916 61.5902C190.123 60.8086 189.943 59.963 189.428 59.3292L189.431 59.3325ZM163.085 48.8945C163.085 44.7945 166.104 41.0476 169.056 37.9246C169.577 37.3761 170.267 37.0724 171.002 37.0724C171.211 37.0724 171.415 37.1036 171.613 37.1512C168.98 41.5517 167.835 45.2477 167.835 49.3871C167.835 49.8403 168.19 50.2081 168.627 50.2081C169.064 50.2081 169.419 49.8403 169.419 49.3871C169.419 45.5597 170.5 42.1132 172.986 37.9689C175.926 41.0837 178.919 44.8126 178.919 48.8945C178.919 53.313 175.442 56.7759 171.002 56.7759C166.562 56.7759 163.085 53.3147 163.085 48.8945ZM153.613 61.1567C153.542 60.8907 153.605 60.6099 153.786 60.3866C153.957 60.1748 154.205 60.0533 154.46 60.0533C154.485 60.0533 154.512 60.0533 154.538 60.0566C164.89 61.0565 168.837 70.0118 169.911 73.1545C166.391 72.9165 156.33 71.3418 153.615 61.1567H153.613ZM188.391 61.1567C185.675 71.3287 175.635 72.9132 172.104 73.1545C173.208 70.0266 177.244 61.0451 187.465 60.0566C187.492 60.0533 187.517 60.0533 187.542 60.0533C187.797 60.0533 188.044 60.1748 188.217 60.3866C188.397 60.6099 188.461 60.8923 188.391 61.1567Z" fill="#E48F45"/>
</svg>
