<svg width="71" height="71" viewBox="0 0 71 71" fill="none" xmlns="http://www.w3.org/2000/svg">
<g clip-path="url(#clip0_25_78)">
<path d="M64.8733 33.0209C63.9415 20.2794 56.0279 19.2292 53.4956 19.2292C47.6558 19.2292 41.4167 23.5217 41.4167 35.5651V38.8281C39.5175 37.5472 37.3608 36.9762 35.2545 36.9762C32.944 36.9762 26.1724 37.8726 24.288 47.6824C20.5309 48.7149 17.75 52.1258 17.75 56.2054C17.75 62.1871 23.8413 68.4529 24.5335 69.1451L26.625 71.2367L28.7166 69.1451C29.4088 68.4529 35.5 62.1871 35.5 56.2054C35.5 52.5903 33.3227 49.487 30.2135 48.1025C30.8821 45.2004 32.3287 42.8929 35.2545 42.8929C39.2275 42.8929 41.4167 46.5938 41.4167 53.3121V70.997H47.3334V35.5621C47.3334 28.8438 49.5225 25.1429 53.4956 25.1429C57.3237 25.1429 58.6165 29.0863 58.9448 33.154C55.6226 34.438 53.25 37.6448 53.25 41.4137C53.25 47.3955 59.3413 53.6612 60.0335 54.3535L62.125 56.445L64.2166 54.3535C64.9088 53.6612 71 47.3955 71 41.4137C71 37.485 68.4174 34.1865 64.8733 33.0209ZM26.625 62.5303C25.0956 60.5097 23.6667 58.0307 23.6667 56.2083C23.6667 54.6937 24.8264 53.4867 26.2967 53.3151H26.9534C28.4237 53.4867 29.5834 54.6907 29.5834 56.2083C29.5834 58.0277 28.1545 60.5097 26.625 62.5303ZM62.125 47.7386C60.5956 45.7181 59.1667 43.239 59.1667 41.4167C59.1667 39.7837 60.492 38.4583 62.125 38.4583C63.758 38.4583 65.0834 39.7837 65.0834 41.4167C65.0834 43.236 63.6545 45.7181 62.125 47.7386ZM14.2888 37.1833L5.05287 42.5586L2.07679 37.4436L11.3275 32.0595C11.0405 31.2607 10.8127 30.4353 10.656 29.5833H-0.079834V23.6667H10.6382C10.798 22.8058 11.0287 21.9715 11.3186 21.1639L2.062 15.7768L5.03808 10.6618L14.2888 16.046C14.8213 15.4247 15.3982 14.8479 16.0165 14.3154L10.653 5.09425L15.768 2.11817L21.1255 11.3334C21.9213 11.0464 22.7378 10.8127 23.5839 10.65V0H29.5005V10.6411C30.3644 10.795 31.1986 11.0257 32.0092 11.3097L37.3549 2.11817L42.4699 5.09425L37.1419 14.2532C38.6743 15.5579 39.976 17.1258 40.9434 18.9097C39.2601 20.7882 37.8726 23.1608 36.92 26.0452C36.6124 20.6107 32.1335 16.2738 26.625 16.2738C20.9155 16.2738 16.2709 20.9184 16.2709 26.628C16.2709 31.1542 19.2085 34.9675 23.2614 36.3727C22.0071 37.7631 20.9095 39.4612 20.0339 41.4906C17.8062 40.4996 15.8567 39.0086 14.2888 37.1833Z" fill="#F5F5F5"/>
</g>
<defs>
<clipPath id="clip0_25_78">
<rect width="71" height="71" fill="white"/>
</clipPath>
</defs>
</svg>
