<svg width="71" height="71" viewBox="0 0 71 71" fill="none" xmlns="http://www.w3.org/2000/svg">
<g clip-path="url(#clip0_27_91)">
<path d="M61.7581 71H9.24178C7.48685 71.0008 5.76802 70.5015 4.28668 69.5606C2.80534 68.6196 1.62285 67.2759 0.87776 65.687C0.13267 64.0981 -0.144159 62.3298 0.0797099 60.5892C0.303579 58.8486 1.01887 57.2079 2.14178 55.8592L26.2404 30.5033C26.5185 30.2107 26.8536 29.9782 27.225 29.8199C27.5964 29.6617 27.9963 29.5812 28.4 29.5833H42.5999C43.0012 29.5832 43.3982 29.6647 43.7669 29.8229C44.1356 29.981 44.4683 30.2126 44.7447 30.5033L68.7072 55.7142C69.8694 57.0491 70.623 58.69 70.8785 60.4413C71.1339 62.1926 70.8802 63.9804 70.1478 65.5916C69.4153 67.2027 68.235 68.5693 66.7474 69.5282C65.2599 70.4871 63.5279 70.998 61.7581 71ZM18.4126 47.3333L6.57928 59.7908C6.22535 60.2872 6.01362 60.8708 5.96693 61.4786C5.92024 62.0864 6.04036 62.6955 6.31433 63.2401C6.5883 63.7847 7.00573 64.2441 7.52162 64.569C8.0375 64.8938 8.63227 65.0716 9.24178 65.0833H61.7581C62.3852 65.0772 62.9979 64.894 63.5254 64.5548C64.0529 64.2157 64.4739 63.7344 64.7398 63.1664C65.0057 62.5984 65.1057 61.9669 65.0283 61.3445C64.9509 60.7222 64.6992 60.1344 64.3023 59.6488L52.5902 47.3333H47.3333C46.5487 47.3333 45.7962 47.645 45.2414 48.1998C44.6866 48.7546 44.375 49.507 44.375 50.2916V59.1666C44.375 59.9512 44.0633 60.7037 43.5085 61.2585C42.9537 61.8133 42.2012 62.125 41.4166 62.125C40.632 62.125 39.8796 61.8133 39.3248 61.2585C38.77 60.7037 38.4583 59.9512 38.4583 59.1666V50.2916C38.4583 49.507 38.1466 48.7546 37.5918 48.1998C37.037 47.645 36.2845 47.3333 35.5 47.3333C34.7154 47.3333 33.9629 47.645 33.4081 48.1998C32.8533 48.7546 32.5416 49.507 32.5416 50.2916V53.25C32.5416 54.0346 32.2299 54.787 31.6751 55.3418C31.1203 55.8966 30.3679 56.2083 29.5833 56.2083C28.7987 56.2083 28.0462 55.8966 27.4914 55.3418C26.9366 54.787 26.6249 54.0346 26.6249 53.25V50.2916C26.6249 49.507 26.3133 48.7546 25.7585 48.1998C25.2037 47.645 24.4512 47.3333 23.6666 47.3333H18.4126ZM35.5 41.4166C37.6845 41.4147 39.7923 42.222 41.4166 43.6827C42.9476 42.3025 44.9128 41.5009 46.9724 41.4166L41.3515 35.5H29.6602L24.0394 41.4166C26.0946 41.5043 28.055 42.3057 29.5833 43.6827C31.2076 42.222 33.3154 41.4147 35.5 41.4166ZM56.2083 26.625C54.7856 26.6231 53.3847 26.2759 52.1258 25.6132C50.6167 26.2821 48.984 26.6268 47.3333 26.625H41.4166C40.632 26.625 39.8796 26.3133 39.3248 25.7585C38.77 25.2037 38.4583 24.4512 38.4583 23.6666C38.4583 22.882 38.77 22.1296 39.3248 21.5748C39.8796 21.02 40.632 20.7083 41.4166 20.7083H47.3333C48.5095 20.7098 49.6592 20.3595 50.6348 19.7025C51.1798 19.3343 51.8321 19.1582 52.4884 19.2021C53.1447 19.2461 53.7676 19.5075 54.2587 19.945C54.6159 20.2525 55.042 20.4693 55.5008 20.5771C55.9596 20.6849 56.4376 20.6805 56.8944 20.5642C57.3511 20.448 57.7731 20.2234 58.1246 19.9094C58.476 19.5953 58.7466 19.2012 58.9134 18.7604C59.0801 18.3196 59.1381 17.8451 59.0825 17.3771C59.0269 16.9091 58.8593 16.4614 58.5938 16.0719C58.3284 15.6825 57.973 15.3628 57.5577 15.1399C57.1424 14.917 56.6795 14.7976 56.2083 14.7916C55.5221 14.8601 54.8318 14.7102 54.2358 14.3634C53.6397 14.0165 53.1684 13.4903 52.889 12.8598C52.6051 12.0466 52.1462 11.3056 51.5446 10.6891C50.9431 10.0726 50.2136 9.59557 49.4076 9.29174C48.6016 8.9879 47.7387 8.86463 46.8799 8.93063C46.0211 8.99663 45.1872 9.25029 44.4371 9.67371C43.7768 10.0465 42.9986 10.1515 42.2631 9.96711C41.5276 9.78269 40.891 9.3229 40.4847 8.68267C39.9497 7.84591 39.2127 7.15729 38.3415 6.6803C37.4703 6.20331 36.4931 5.95329 35.5 5.95329C34.5068 5.95329 33.5295 6.20331 32.6584 6.6803C31.7872 7.15729 31.0502 7.84591 30.5152 8.68267C30.1089 9.3229 29.4723 9.78269 28.7368 9.96711C28.0013 10.1515 27.2231 10.0465 26.5628 9.67371C25.8128 9.24976 24.9789 8.99567 24.1199 8.9294C23.2609 8.86313 22.3979 8.98629 21.5917 9.29019C20.7856 9.59408 20.056 10.0713 19.4545 10.6881C18.8531 11.3049 18.3944 12.0463 18.1109 12.8598C17.8874 13.4783 17.4671 14.0063 16.9145 14.3628C16.3619 14.7193 15.7075 14.8845 15.0519 14.833L14.7236 14.7916C14.2554 14.8086 13.7982 14.9376 13.3902 15.1677C12.9821 15.3978 12.6351 15.7223 12.3783 16.114C12.1215 16.5058 11.9623 16.9534 11.914 17.4193C11.8657 17.8853 11.9298 18.356 12.1009 18.7921C12.272 19.2282 12.545 19.6169 12.8973 19.9257C13.2495 20.2346 13.6706 20.4545 14.1253 20.5671C14.58 20.6797 15.055 20.6818 15.5107 20.573C15.9663 20.4643 16.3893 20.2479 16.7441 19.9421C17.2354 19.5057 17.8579 19.2452 18.5136 19.2018C19.1692 19.1585 19.8207 19.3346 20.3651 19.7025C21.3407 20.3595 22.4904 20.7098 23.6666 20.7083H29.5833C30.3679 20.7083 31.1203 21.02 31.6751 21.5748C32.2299 22.1296 32.5416 22.882 32.5416 23.6666C32.5416 24.4512 32.2299 25.2037 31.6751 25.7585C31.1203 26.3133 30.3679 26.625 29.5833 26.625H23.6666C22.0159 26.6268 20.3832 26.2821 18.8741 25.6132C6.40474 31.2636 0.0857371 11.8333 13.3923 8.98442C14.7133 6.64163 16.7948 4.82021 19.2921 3.82171C21.7894 2.82321 24.5529 2.7075 27.1249 3.49375C29.3485 1.27715 32.3602 0.0324707 35.5 0.0324707C38.6397 0.0324707 41.6514 1.27715 43.875 3.49375C46.447 2.7075 49.2105 2.82321 51.7078 3.82171C54.2051 4.82021 56.2866 6.64163 57.6076 8.98442C59.814 9.33419 61.8074 10.5032 63.1898 12.2581C64.5722 14.013 65.2419 16.2247 65.0652 18.4517C64.8886 20.6787 63.8786 22.7572 62.2368 24.2722C60.595 25.7873 58.4423 26.6274 56.2083 26.625Z" fill="#F5F5F5"/>
</g>
<defs>
<clipPath id="clip0_27_91">
<rect width="71" height="71" fill="white"/>
</clipPath>
</defs>
</svg>
